<?xml version="1.0" encoding="utf-8"?>
<!-- Generator: Adobe Illustrator 19.0.0, SVG Export Plug-In . SVG Version: 6.00 Build 0)  -->
<svg version="1.1" id="圖層_1" xmlns="http://www.w3.org/2000/svg" xmlns:xlink="http://www.w3.org/1999/xlink" x="0px" y="0px"
	 viewBox="-223 25 512 512" style="enable-background:new -223 25 512 512;" xml:space="preserve">
<style type="text/css">
	.st0{fill:#FFFFFF;}
</style>
<g id="XMLID_74_">
	<path id="XMLID_77_" class="st0" d="M23.9,55c-120.6,0-217.5,96.9-217.5,217.5S-96.8,490,23.9,490s217.5-96.9,217.5-217.5
		S144.5,55,23.9,55z M142.5,252.7h-14.8c-3,0-4.9,2-4.9,4.9v123.6c0,5.9-4,9.9-9.9,9.9h-178c-5.9,0-9.9-4-9.9-9.9V257.7
		c0-3-2-4.9-4.9-4.9h-14.8c-5.9,0-9.9-4-9.9-9.9c0-3,2-6.9,4-7.9l118.6-79.1c2-1,3-2,5.9-2s4,1,5.9,2l118.6,79.1c3,2,4,4.9,4,7.9
		C152.4,248.8,148.4,252.7,142.5,252.7z"/>
	<path id="XMLID_58_" class="st0" d="M26.8,201.3c-2-1-4-1-5.9,0l-54.4,36.6c-1,1-2,2-2,4v104.8c0,3,2,4.9,4.9,4.9h29.7
		c3,0,4.9-2,4.9-4.9v-44.5c0-5.9,4-9.9,9.9-9.9h19.8c5.9,0,9.9,4,9.9,9.9v44.5c0,3,2,4.9,4.9,4.9h29.7c3,0,4.9-2,4.9-4.9V241.9
		c0-2-1-3-2-4L26.8,201.3z"/>
</g>
</svg>
