<?xml version="1.0" encoding="iso-8859-1"?>
<!-- Generator: Adobe Illustrator 19.0.0, SVG Export Plug-In . SVG Version: 6.00 Build 0)  -->
<svg version="1.1" id="Layer_1" xmlns="http://www.w3.org/2000/svg" xmlns:xlink="http://www.w3.org/1999/xlink" x="0px" y="0px"
	 viewBox="0 0 512.184 512.184" style="enable-background:new 0 0 512.184 512.184;" xml:space="preserve">
<circle style="fill:#88C5CC;" cx="256.092" cy="256" r="256"/>
<path style="fill:#80B9BF;" d="M445.78,422.48c-0.272-0.688-0.532-1.376-0.828-2.056c-0.272-0.688-0.536-1.384-0.832-2.064
	c-0.268-0.68-0.532-1.368-0.824-2.04c-0.272-0.688-0.536-1.384-0.832-2.064c-0.268-0.68-0.532-1.368-0.824-2.04
	c-0.272-0.68-0.532-1.376-0.828-2.048c-0.272-0.68-0.532-1.376-0.828-2.048c-0.272-0.696-0.54-1.392-0.832-2.072
	c-0.268-0.68-0.528-1.368-0.824-2.032c-0.272-0.688-0.532-1.376-0.828-2.056c-0.272-0.688-0.54-1.384-0.832-2.064
	c-0.268-0.68-0.528-1.368-0.824-2.04c-0.272-0.688-0.54-1.384-0.832-2.064c-0.268-0.672-0.524-1.352-0.816-2.016
	c-0.28-0.696-0.54-1.4-0.84-2.084c-0.268-0.68-0.532-1.368-0.824-2.032c-0.272-0.688-0.536-1.384-0.832-2.064
	c-0.268-0.68-0.532-1.376-0.824-2.04c-0.272-0.688-0.532-1.376-0.828-2.056c-0.272-0.688-0.536-1.384-0.832-2.064
	c-0.268-0.672-0.524-1.352-0.808-2.016c-0.28-0.704-0.548-1.4-0.844-2.084c-0.268-0.68-0.528-1.368-0.82-2.032
	c-0.276-0.688-0.544-1.384-0.836-2.064c-0.268-0.68-0.528-1.376-0.82-2.04c-0.276-0.696-0.544-1.384-0.836-2.064
	c-0.268-0.68-0.528-1.368-0.82-2.04c-0.272-0.68-0.532-1.368-0.82-2.032c-0.28-0.704-0.544-1.4-0.844-2.084
	c-0.268-0.68-0.532-1.368-0.82-2.032c-0.276-0.688-0.54-1.384-0.836-2.064c-0.268-0.688-0.532-1.376-0.82-2.04
	c-0.276-0.696-0.54-1.384-0.836-2.064c-0.268-0.68-0.532-1.368-0.82-2.04c-0.276-0.688-0.54-1.384-0.836-2.064
	c-0.268-0.68-0.524-1.36-0.812-2.024c-0.276-0.696-0.54-1.392-0.836-2.08c-0.272-0.68-0.532-1.368-0.828-2.032
	c-0.272-0.688-0.532-1.384-0.828-2.056c-0.272-0.696-0.54-1.384-0.828-2.064c-0.272-0.68-0.532-1.368-0.828-2.04
	c-0.272-0.688-0.54-1.384-0.828-2.064c-0.272-0.68-0.524-1.36-0.816-2.024c-0.28-0.696-0.544-1.392-0.84-2.08
	c-0.272-0.68-0.532-1.368-0.824-2.04c-0.276-0.688-0.536-1.384-0.832-2.064c-0.272-0.68-0.532-1.368-0.824-2.032
	c-0.276-0.688-0.536-1.376-0.828-2.056c-0.276-0.688-0.536-1.384-0.832-2.064c-0.272-0.68-0.524-1.36-0.812-2.024
	c-0.28-0.696-0.548-1.392-0.84-2.08c-0.272-0.68-0.528-1.368-0.824-2.04c-0.276-0.688-0.54-1.384-0.832-2.064
	c-0.272-0.68-0.528-1.368-0.824-2.032c-0.276-0.696-0.54-1.392-0.832-2.072c-0.272-0.68-0.528-1.368-0.824-2.032
	c-0.272-0.68-0.528-1.368-0.82-2.04c-0.28-0.696-0.54-1.392-0.84-2.08c-0.268-0.68-0.532-1.368-0.824-2.04
	c-0.272-0.688-0.536-1.384-0.832-2.064c-0.268-0.68-0.532-1.368-0.824-2.032c-0.272-0.696-0.536-1.392-0.832-2.072
	c-0.268-0.68-0.532-1.368-0.824-2.032c-0.272-0.688-0.536-1.384-0.832-2.064c-0.268-0.68-0.524-1.36-0.812-2.024
	c-0.276-0.696-0.54-1.392-0.836-2.072c-0.276-0.688-0.54-1.384-0.832-2.064c-0.272-0.68-0.528-1.368-0.824-2.032
	c-0.276-0.696-0.54-1.392-0.832-2.072c-0.272-0.68-0.528-1.368-0.824-2.032c-0.276-0.688-0.54-1.384-0.832-2.064
	c-0.272-0.68-0.524-1.36-0.816-2.024c-0.276-0.696-0.54-1.4-0.84-2.08c-0.272-0.68-0.532-1.368-0.824-2.04
	c-0.276-0.68-0.532-1.376-0.828-2.056c-0.276-0.688-0.536-1.384-0.832-2.064c-0.272-0.68-0.532-1.368-0.824-2.032
	c-0.276-0.688-0.536-1.384-0.832-2.072c-0.272-0.672-0.524-1.352-0.812-2.016c-0.276-0.696-0.544-1.4-0.836-2.08
	c-0.272-0.68-0.532-1.368-0.828-2.036c-0.272-0.688-0.54-1.388-0.828-2.068c-0.272-0.68-0.532-1.368-0.828-2.036
	c-0.272-0.692-0.54-1.384-0.828-2.064c-0.272-0.68-0.532-1.368-0.828-2.04c-0.272-0.684-0.532-1.376-0.828-2.052
	c-0.272-0.684-0.532-1.376-0.828-2.048c-0.272-0.684-0.532-1.376-0.828-2.052c-0.272-0.692-0.536-1.388-0.828-2.068
	c-0.272-0.68-0.536-1.368-0.828-2.036c-0.272-0.692-0.536-1.384-0.828-2.064c-0.272-0.68-0.536-1.372-0.828-2.04
	c-0.272-0.688-0.536-1.384-0.828-2.064c-0.272-0.676-0.528-1.356-0.812-2.02c-0.28-0.692-0.544-1.388-0.836-2.068
	c-0.276-0.692-0.544-1.388-0.836-2.068c-0.268-0.68-0.524-1.368-0.82-2.036c-0.276-0.692-0.544-1.384-0.836-2.064
	c-0.268-0.684-0.524-1.372-0.82-2.04c-0.276-0.688-0.544-1.384-0.836-2.064c-0.268-0.676-0.524-1.356-0.812-2.02
	c-0.28-0.696-0.54-1.4-0.844-2.084c-0.268-0.68-0.532-1.368-0.82-2.036c-0.276-0.684-0.532-1.376-0.828-2.052
	c-0.276-0.692-0.54-1.384-0.836-2.068c-0.268-0.68-0.532-1.368-0.82-2.036c-0.276-0.688-0.54-1.384-0.836-2.064
	c-0.268-0.676-0.524-1.356-0.808-2.02c-0.28-0.696-0.544-1.4-0.84-2.084c-0.272-0.68-0.532-1.368-0.824-2.036
	c-0.276-0.688-0.544-1.384-0.832-2.064c-0.272-0.68-0.532-1.372-0.824-2.04c-0.276-0.684-0.536-1.376-0.828-2.052
	c-0.276-0.688-0.544-1.384-0.832-2.064c-0.272-0.676-0.524-1.356-0.816-2.02c-0.28-0.7-0.544-1.4-0.84-2.084
	c-0.272-0.68-0.532-1.368-0.824-2.036c-0.276-0.688-0.536-1.384-0.832-2.064c-0.272-0.684-0.532-1.372-0.824-2.04
	c-0.276-0.692-0.536-1.384-0.832-2.064c-0.272-0.68-0.532-1.368-0.824-2.036c-0.276-0.688-0.536-1.388-0.832-2.068
	c-0.272-0.676-0.524-1.356-0.812-2.02c-0.28-0.692-0.54-1.388-0.836-2.068c-0.272-0.688-0.54-1.384-0.832-2.068
	C330.44,136.92,301.616,116,268.092,116h-16h-8c-44,0-80,36-80,80v24v96c0,11.252,2.384,21.976,6.628,31.712
	c0.272,0.68,0.528,1.368,0.824,2.04c0.272,0.68,0.528,1.368,0.82,2.04c0.28,0.696,0.54,1.392,0.84,2.08
	c0.272,0.68,0.532,1.368,0.824,2.032c0.276,0.696,0.536,1.392,0.832,2.072c0.272,0.68,0.532,1.368,0.824,2.032
	c0.276,0.688,0.536,1.384,0.832,2.064c0.272,0.68,0.532,1.376,0.824,2.04c0.276,0.696,0.536,1.384,0.832,2.064
	c0.272,0.68,0.524,1.36,0.812,2.024c0.28,0.696,0.544,1.392,0.84,2.08c0.272,0.68,0.528,1.368,0.824,2.04
	c0.276,0.68,0.532,1.376,0.828,2.048c0.276,0.688,0.54,1.384,0.832,2.064c0.272,0.688,0.528,1.376,0.824,2.04
	c0.276,0.696,0.54,1.384,0.832,2.064c0.272,0.68,0.524,1.36,0.816,2.024c0.28,0.696,0.54,1.4,0.84,2.08
	c0.272,0.68,0.532,1.368,0.824,2.04c0.276,0.688,0.536,1.384,0.832,2.064c0.272,0.68,0.532,1.368,0.824,2.032
	c0.276,0.688,0.532,1.384,0.828,2.056c0.276,0.696,0.536,1.384,0.832,2.064c0.272,0.68,0.524,1.36,0.812,2.024
	c0.28,0.696,0.544,1.4,0.84,2.08c0.272,0.68,0.528,1.368,0.824,2.04c0.276,0.688,0.54,1.384,0.832,2.064
	c0.272,0.68,0.528,1.368,0.824,2.04c0.276,0.688,0.54,1.384,0.832,2.064c0.272,0.68,0.528,1.368,0.824,2.032
	c0.272,0.68,0.528,1.368,0.82,2.04c0.28,0.696,0.54,1.4,0.84,2.08c0.272,0.68,0.532,1.368,0.824,2.04
	c0.276,0.688,0.536,1.384,0.832,2.064c0.272,0.68,0.532,1.368,0.824,2.04c0.276,0.688,0.536,1.384,0.832,2.064
	c0.272,0.68,0.532,1.368,0.824,2.032c0.276,0.688,0.532,1.376,0.828,2.056c0.276,0.68,0.532,1.376,0.828,2.048
	c0.276,0.688,0.532,1.376,0.828,2.056c0.276,0.688,0.54,1.384,0.832,2.064c0.272,0.68,0.528,1.368,0.824,2.04
	c0.276,0.688,0.54,1.384,0.832,2.064c0.272,0.68,0.528,1.368,0.824,2.032c0.276,0.696,0.54,1.392,0.832,2.072
	c0.272,0.672,0.524,1.352,0.816,2.016c0.28,0.696,0.54,1.4,0.84,2.08c0.272,0.68,0.532,1.376,0.824,2.04
	c0.276,0.696,0.536,1.384,0.832,2.064c0.272,0.68,0.532,1.368,0.824,2.04c0.276,0.68,0.532,1.376,0.828,2.048
	c0.276,0.696,0.536,1.392,0.832,2.072c0.272,0.672,0.524,1.352,0.812,2.016c0.28,0.696,0.544,1.4,0.84,2.08
	c0.272,0.68,0.528,1.376,0.824,2.04c0.276,0.696,0.54,1.384,0.832,2.064c0.272,0.68,0.528,1.368,0.824,2.04
	c0.276,0.688,0.54,1.384,0.832,2.064c0.272,0.68,0.528,1.368,0.824,2.04c0.272,0.68,0.528,1.36,0.82,2.032
	c0.28,0.696,0.54,1.4,0.84,2.08c0.272,0.688,0.532,1.376,0.824,2.04c0.276,0.696,0.536,1.384,0.832,2.064
	c0.272,0.68,0.532,1.368,0.824,2.04c0.276,0.688,0.536,1.384,0.832,2.064c0.272,0.68,0.532,1.368,0.824,2.04
	c0.276,0.688,0.536,1.384,0.832,2.064c0.272,0.672,0.524,1.352,0.812,2.016c0.28,0.696,0.54,1.392,0.836,2.072
	c0.276,0.696,0.54,1.384,0.832,2.064c0.272,0.68,0.528,1.368,0.824,2.04c0.276,0.688,0.54,1.384,0.832,2.064
	c0.272,0.68,0.528,1.368,0.824,2.04c0.276,0.688,0.54,1.384,0.832,2.064c0.272,0.672,0.524,1.352,0.816,2.016
	c0.28,0.704,0.54,1.4,0.84,2.084c0.272,0.68,0.532,1.368,0.824,2.032c0.276,0.688,0.532,1.376,0.828,2.056
	c0.276,0.688,0.536,1.384,0.832,2.064c0.216,0.54,0.428,1.08,0.652,1.616c6.384,0.468,12.812,0.796,19.32,0.796
	c76.04,0,144.296-33.188,191.188-85.82c-0.224-0.556-0.428-1.108-0.672-1.648C446.336,423.848,446.076,423.152,445.78,422.48z"/>
<path style="fill:#F5F5F5;" d="M348.092,315.996c0,44-36,80-80,80h-24c-44,0-80-36-80-80v-120c0-44,36-80,80-80h24c44,0,80,36,80,80
	V315.996z"/>
<path style="fill:#E6E6E6;" d="M268.092,116h-16c44,0,80,36,80,80v120c0,44-36,80-80,80h16c44,0,80-36,80-80V196
	C348.092,152,312.092,116,268.092,116z"/>
<path style="fill:#EBEBEB;" d="M164.092,196v24h184v-24c0-44-36-80-80-80h-24C200.092,116,164.092,152,164.092,196z"/>
<path style="fill:#E0E0E0;" d="M268.092,116h-16c44,0,80,36,80,80v24h16v-24C348.092,152,312.092,116,268.092,116z"/>
<path style="fill:#263740;" d="M260.092,252c-4.416,0-8-3.584-8-8v-56c0-4.416,3.584-8,8-8c4.416,0,8,3.584,8,8v56
	C268.092,248.412,264.508,252,260.092,252z"/>
<g>
</g>
<g>
</g>
<g>
</g>
<g>
</g>
<g>
</g>
<g>
</g>
<g>
</g>
<g>
</g>
<g>
</g>
<g>
</g>
<g>
</g>
<g>
</g>
<g>
</g>
<g>
</g>
<g>
</g>
</svg>
